<svg width="159" height="46" viewBox="0 0 159 46" fill="none" xmlns="http://www.w3.org/2000/svg">
<path d="M72.3389 16.3726L65.5713 37H60.1196L69.3652 12.1172H72.8345L72.3389 16.3726ZM77.9614 37L71.1768 16.3726L70.6299 12.1172H74.1333L83.4302 37H77.9614ZM77.6538 27.7373V31.7534H64.5117V27.7373H77.6538ZM94.7437 12.1172V37H89.6338V12.1172H94.7437ZM102.4 12.1172V16.1333H82.0972V12.1172H102.4ZM105.322 12.1172H114.602C116.505 12.1172 118.14 12.402 119.507 12.9717C120.885 13.5413 121.945 14.3844 122.686 15.501C123.426 16.6175 123.796 17.9904 123.796 19.6196C123.796 20.9526 123.569 22.0977 123.113 23.0547C122.668 24.0003 122.036 24.7922 121.216 25.4302C120.407 26.0568 119.456 26.5581 118.362 26.9341L116.738 27.7886H108.672L108.638 23.7896H114.636C115.536 23.7896 116.283 23.63 116.875 23.311C117.467 22.992 117.912 22.5477 118.208 21.978C118.516 21.4084 118.669 20.7476 118.669 19.9956C118.669 19.1981 118.521 18.5088 118.225 17.9277C117.929 17.3467 117.479 16.9023 116.875 16.5947C116.271 16.2871 115.514 16.1333 114.602 16.1333H110.449V37H105.322V12.1172ZM119.233 37L113.56 25.9087L118.977 25.8745L124.719 36.7607V37H119.233ZM133.196 12.1172V37H128.086V12.1172H133.196ZM142.527 12.1172L147.209 20.7988L151.892 12.1172H157.754L150.525 24.4561L157.942 37H152.029L147.209 28.1475L142.39 37H136.443L143.877 24.4561L136.631 12.1172H142.527Z" fill="#5442D0"/>
<path d="M19.5608 20.4204L16.3365 13.7568L0 45.9999H6.87851L19.5608 20.4204Z" fill="#5442D0"/>
<path d="M36.758 40.4113L19.7767 6.66356L23.216 0L46.216 45.7851H13.3281L15.9076 40.4113H36.758Z" fill="#5442D0"/>
<path d="M22.5703 26.8691L18.4862 35.4673H26.8694L22.5703 26.8691Z" fill="#5442D0"/>
</svg>
