<svg width="16" height="16" viewBox="0 0 16 16" fill="none" xmlns="http://www.w3.org/2000/svg">
<circle cx="8" cy="8" r="7.3" stroke="black" stroke-width="1.4"/>
<path d="M6.13132 5.66405C6.09355 5.9653 5.85334 6.21261 5.54973 6.21261C5.24612 6.21261 4.99661 5.966 5.0183 5.66317C5.05232 5.18809 5.13377 4.81233 5.26265 4.53588C5.41332 4.21842 5.65968 3.91661 6.00173 3.63045C6.51074 3.21015 7.11137 3 7.80362 3C8.54474 3 9.16166 3.22803 9.65438 3.6841C10.1878 4.18042 10.4545 4.84887 10.4545 5.68947C10.4545 6.13213 10.367 6.51218 10.1919 6.82964C10.0494 7.09792 9.74397 7.47798 9.27568 7.96982C8.93363 8.33646 8.71373 8.58909 8.616 8.7277C8.32281 9.13906 8.17622 9.67561 8.17622 10.3374L8.20065 10.4715H7.10119C7.10119 9.59513 7.23964 8.93114 7.51654 8.47954C7.62242 8.29622 7.86674 7.9877 8.24952 7.55399C8.63636 7.12028 8.87051 6.84753 8.95195 6.73575C9.16777 6.43617 9.27568 6.06059 9.27568 5.60899C9.27568 5.2334 9.17591 4.90476 8.97638 4.62307C8.70355 4.23854 8.30449 4.04628 7.77919 4.04628C7.23761 4.04628 6.82225 4.22736 6.53314 4.58954C6.32238 4.85029 6.18844 5.20846 6.13132 5.66405ZM7.67841 11.5983C8.01069 11.5983 8.28006 11.8676 8.28006 12.1999V12.3984C8.28006 12.7306 8.01069 13 7.67841 13C7.34613 13 7.07676 12.7306 7.07676 12.3984V12.1999C7.07676 11.8676 7.34613 11.5983 7.67841 11.5983Z" fill="black"/>
</svg>
