<svg width="15" height="15" viewBox="0 0 15 15" fill="none" xmlns="http://www.w3.org/2000/svg">
<path fill-rule="evenodd" clip-rule="evenodd" d="M6.67898 0.0190376C5.33525 0.182967 4.09656 0.68068 3.0221 1.48833C2.64634 1.7708 2.03899 2.36244 1.73248 2.74464C1.21872 3.3852 0.814517 4.07661 0.814517 4.31476C0.814517 4.65696 1.06637 4.91473 1.40073 4.91473C1.6841 4.91473 1.82262 4.81077 2.02022 4.44986C2.65127 3.29722 3.61245 2.37869 4.78769 1.80514C5.40539 1.5037 6.06341 1.30681 6.75228 1.21728C7.13816 1.16716 7.98009 1.17526 8.36501 1.23285C10.1018 1.49259 11.571 2.3993 12.6183 3.85766C12.7517 4.04341 12.761 4.04772 12.2639 3.69426C11.8408 3.39335 11.7743 3.36018 11.5959 3.36112C11.2368 3.363 10.9387 3.72294 11.015 4.06256C11.0698 4.3064 11.1076 4.33895 12.4571 5.30499C13.1739 5.8181 13.8093 6.26353 13.8691 6.29482C14.1279 6.4301 14.4799 6.33156 14.6355 6.0803C14.7186 5.94614 14.7198 5.93758 14.8644 4.36705C14.9443 3.49892 15.0052 2.70769 14.9996 2.60878C14.986 2.36614 14.8834 2.20936 14.6748 2.11221C14.4828 2.02282 14.3573 2.02282 14.1654 2.11221C13.9054 2.23326 13.8323 2.39989 13.7915 2.96458C13.7576 3.43206 13.7633 3.42596 13.5935 3.1786C13.2011 2.60696 12.5251 1.89968 11.9785 1.48875C10.9816 0.739419 9.9266 0.284962 8.68917 0.0718529C8.41318 0.0243455 8.17817 0.00892026 7.61729 0.00158888C7.22217 -0.00357242 6.79993 0.0042575 6.67898 0.0190376ZM0.577211 8.70734C0.494493 8.75101 0.417933 8.82415 0.364478 8.91045C0.281379 9.04462 0.280235 9.05318 0.135588 10.6237C0.0556558 11.4918 -0.00521731 12.2831 0.000353926 12.382C0.0140181 12.6246 0.116617 12.7814 0.325245 12.8785C0.408872 12.9175 0.523493 12.9493 0.579938 12.9493C0.740273 12.9493 0.975115 12.8252 1.06138 12.6949C1.14583 12.5672 1.18096 12.4076 1.20855 12.0262C1.24236 11.5587 1.23673 11.5648 1.40653 11.8122C1.66407 12.1873 1.97586 12.5503 2.36247 12.9249C2.96657 13.5102 3.53073 13.9055 4.28519 14.2719C4.95969 14.5995 5.55376 14.7891 6.31084 14.9184C6.76369 14.9957 7.76214 15.0253 8.23752 14.9755C9.92402 14.7989 11.427 14.0979 12.6409 12.9217C13.0726 12.5033 13.3944 12.1163 13.7123 11.6333C14.0322 11.1471 14.1855 10.8367 14.1855 10.6751C14.1855 10.3338 13.9332 10.076 13.5993 10.076C13.3159 10.076 13.1774 10.18 12.9798 10.5409C12.5967 11.2407 12.0282 11.9254 11.4224 12.417C9.55514 13.932 7.00607 14.2415 4.84633 13.2154C3.85207 12.743 3.05307 12.0679 2.38171 11.1331C2.24832 10.9473 2.23896 10.943 2.73607 11.2965C3.15924 11.5974 3.22575 11.6306 3.40412 11.6296C3.86301 11.6272 4.13914 11.1204 3.90242 10.715C3.86339 10.6482 3.44745 10.3333 2.54295 9.68576C1.82614 9.17265 1.19072 8.72723 1.1309 8.69594C0.976845 8.61541 0.742091 8.62025 0.577211 8.70734Z" fill="black"/>
</svg>
