<svg width="55" height="55" viewBox="0 0 55 55" fill="none" xmlns="http://www.w3.org/2000/svg">
<path d="M55 27.5C55 12.3122 42.6878 2.81682e-06 27.5 3.4807e-06C12.3122 4.14459e-06 -1.86594e-06 12.3122 -1.20206e-06 27.5C-5.38182e-07 42.6878 12.3122 55 27.5 55C42.6878 55 55 42.6878 55 27.5Z" fill="#E84142"/>
<path fill-rule="evenodd" clip-rule="evenodd" d="M19.6836 38.4509H14.3436C13.2233 38.4509 12.6706 38.4509 12.3271 38.2343C11.9611 37.9953 11.737 37.6069 11.7146 37.1737C11.6922 36.7779 11.9686 36.2924 12.5287 35.3141L25.7033 12.0868C26.2634 11.1009 26.5473 10.608 26.9058 10.4213C27.2941 10.2271 27.7497 10.2271 28.138 10.4213C28.4965 10.6005 28.7803 11.0934 29.3405 12.0868L32.0516 16.8144L32.0665 16.8368C32.6715 17.8973 32.9777 18.4351 33.1121 18.9952C33.2615 19.6076 33.2615 20.2574 33.1121 20.8698C32.9777 21.4374 32.6715 21.9752 32.059 23.0506L25.1357 35.2842L25.1207 35.3141C24.5083 36.3821 24.2021 36.9198 23.7764 37.3306C23.3134 37.7787 22.7532 38.0998 22.1333 38.2865C21.5732 38.4509 20.9458 38.4509 19.6836 38.4509Z" fill="white"/>
<path fill-rule="evenodd" clip-rule="evenodd" d="M33.1641 38.4508H40.812C41.9397 38.4508 42.5073 38.4508 42.8434 38.2268C43.2094 37.9878 43.4409 37.5919 43.4558 37.1588C43.4782 36.7704 43.2019 36.3073 42.6717 35.3887C42.6567 35.3588 42.6343 35.329 42.6194 35.2916L38.788 28.7417L38.7432 28.667C38.2054 27.7558 37.9366 27.3002 37.5856 27.121C37.1972 26.9268 36.7491 26.9268 36.3607 27.121C36.0097 27.3002 35.7259 27.7857 35.1657 28.7491L31.3493 35.2991L31.3344 35.3215C30.7742 36.2849 30.4978 36.7704 30.5128 37.1662C30.5427 37.5994 30.7593 37.9952 31.1252 38.2342C31.4688 38.4508 32.0364 38.4508 33.1641 38.4508Z" fill="white"/>
</svg>
