<svg width="55" height="55" viewBox="0 0 55 55" fill="none" xmlns="http://www.w3.org/2000/svg">
<path d="M54.1717 34.153C50.4971 48.8885 35.575 57.8507 20.8395 54.1762C6.11157 50.5017 -2.85069 35.5795 0.823837 20.8515C4.49836 6.1161 19.4131 -2.84615 34.1485 0.820904C48.8839 4.49543 57.8462 19.4176 54.1717 34.153Z" fill="#F7931A"/>
<path d="M39.6229 23.5852C40.1681 19.9256 37.3824 17.9614 33.5734 16.6469L34.8057 11.6878L31.7884 10.9335L30.586 15.7582C29.7943 15.564 28.9802 15.3773 28.1662 15.1905L29.3761 10.336L26.3588 9.58167L25.119 14.5333C24.4618 14.3839 23.8195 14.2346 23.1921 14.0777V14.0628L19.0322 13.0247L18.233 16.2511C18.233 16.2511 20.4736 16.7664 20.4213 16.7963C21.6461 17.1025 21.8627 17.9091 21.8254 18.5514L20.4138 24.22L18.4421 32.1292C18.2928 32.5026 17.9119 33.0553 17.0605 32.8462C17.0903 32.891 14.8647 32.301 14.8647 32.301L13.3635 35.7589L17.292 36.7373C18.0239 36.924 18.7409 37.1107 19.4429 37.29L18.1957 42.3014L21.213 43.0557L22.4527 38.0966C23.2743 38.3206 24.0734 38.5297 24.8576 38.7239L23.6253 43.6606L26.6426 44.415L27.8898 39.411C33.0357 40.3819 36.9044 39.9936 38.5325 35.3407C39.847 31.5915 38.4653 29.4331 35.7617 28.0215C37.7408 27.5585 39.2271 26.2589 39.6229 23.5852ZM32.7295 33.2495C31.7959 36.9987 25.485 34.9747 23.4386 34.4594L25.0966 27.8199C27.143 28.3277 33.7004 29.3434 32.7295 33.2495ZM33.663 23.5254C32.8116 26.9311 27.5612 25.2059 25.8584 24.7802L27.3596 18.753C29.0624 19.1787 34.5518 19.9704 33.663 23.5254Z" fill="white"/>
</svg>
