<svg width="35" height="35" viewBox="0 0 35 35" fill="none" xmlns="http://www.w3.org/2000/svg">
<path d="M34.9982 17.4991C34.9982 7.83458 27.1636 -4.21586e-05 17.4991 -4.17362e-05C7.83462 -4.13137e-05 -1.18736e-06 7.83458 -7.6491e-07 17.4991C-3.42462e-07 27.1636 7.83462 34.9982 17.4991 34.9982C27.1636 34.9982 34.9982 27.1635 34.9982 17.4991Z" fill="#E6007A"/>
<path d="M17.5059 9.38868C20.2883 9.38868 22.5438 8.07579 22.5438 6.45625C22.5438 4.83671 20.2883 3.5238 17.5059 3.5238C14.7236 3.5238 12.468 4.83671 12.468 6.45625C12.468 8.07579 14.7236 9.38868 17.5059 9.38868Z" fill="white"/>
<path d="M17.5059 31.4699C20.2883 31.4699 22.5438 30.157 22.5438 28.5374C22.5438 26.9179 20.2883 25.605 17.5059 25.605C14.7236 25.605 12.468 26.9179 12.468 28.5374C12.468 30.157 14.7236 31.4699 17.5059 31.4699Z" fill="white"/>
<path d="M5.40512 10.5103C6.79767 8.10071 9.05997 6.80321 10.462 7.61118C11.8641 8.41914 11.8736 11.0284 10.481 13.438C9.08849 15.8477 6.82618 17.1452 5.42412 16.3372C4.02207 15.5292 4.01732 12.92 5.40512 10.5103Z" fill="white"/>
<path d="M24.5304 21.551C25.923 19.1414 28.1853 17.8439 29.5874 18.6518C30.9894 19.4598 30.9989 22.069 29.6064 24.4787C28.2138 26.8883 25.9515 28.1858 24.5495 27.3778C23.1474 26.5699 23.1379 23.9606 24.5304 21.551Z" fill="white"/>
<path d="M5.42934 18.6518C6.83139 17.8439 9.09846 19.1414 10.4863 21.551C11.8788 23.9606 11.8693 26.5699 10.4672 27.3778C9.06518 28.1858 6.79812 26.8883 5.41032 24.4787C4.01777 22.0738 4.02728 19.4645 5.42934 18.6518Z" fill="white"/>
<path d="M24.5495 7.61594C25.9515 6.80797 28.2138 8.10547 29.6064 10.5151C30.9989 12.9247 30.9894 15.534 29.5874 16.342C28.1853 17.1499 25.923 15.8524 24.5304 13.4428C23.1379 11.0332 23.1474 8.4239 24.5495 7.61594Z" fill="white"/>
</svg>
