<svg width="35" height="35" viewBox="0 0 35 35" fill="none" xmlns="http://www.w3.org/2000/svg">
<path d="M35 17.5C35 7.83501 27.165 -7.37431e-06 17.5 -6.95184e-06C7.83502 -6.52937e-06 -1.18742e-06 7.83501 -7.6495e-07 17.5C-3.42479e-07 27.165 7.83502 35 17.5 35C27.165 35 35 27.165 35 17.5Z" fill="#627EEA"/>
<path d="M18.0413 4.37927V14.0797L26.2398 17.744L18.0413 4.37927Z" fill="white" fill-opacity="0.602"/>
<path d="M18.0412 4.37927L9.83789 17.744L18.0412 14.0797V4.37927Z" fill="white"/>
<path d="M18.0413 24.0322V30.6242L26.2445 19.2699L18.0413 24.0322Z" fill="white" fill-opacity="0.602"/>
<path d="M18.0412 30.6241V24.0321L9.83789 19.2745L18.0412 30.6241Z" fill="white"/>
<path d="M18.0413 22.5061L26.2398 17.7439L18.0413 14.0842V22.5061Z" fill="white" fill-opacity="0.2"/>
<path d="M9.84204 17.7442L18.0453 22.5065V14.0798L9.84204 17.7442Z" fill="white" fill-opacity="0.602"/>
</svg>
