<svg width="35" height="35" viewBox="0 0 35 35" fill="none" xmlns="http://www.w3.org/2000/svg">
<path d="M17.4996 34.9991C27.1643 34.9991 34.9991 27.1643 34.9991 17.4996C34.9991 7.83482 27.1643 0 17.4996 0C7.83482 0 0 7.83482 0 17.4996C0 27.1643 7.83482 34.9991 17.4996 34.9991Z" fill="url(#paint0_linear_3_567)"/>
<path d="M9.21047 22.566C9.3578 22.4187 9.56217 22.3331 9.7808 22.3331H29.3763C29.7328 22.3331 29.9134 22.7656 29.6615 23.0175L25.7927 26.8862C25.6454 27.0336 25.441 27.1191 25.2224 27.1191H5.6269C5.27045 27.1191 5.08984 26.6866 5.34173 26.4347L9.21047 22.566Z" fill="white"/>
<path d="M9.21022 8.11289C9.36231 7.96556 9.56668 7.88 9.78056 7.88H29.3761C29.7325 7.88 29.9131 8.3125 29.6612 8.5644L25.7925 12.4331C25.6452 12.5805 25.4408 12.666 25.2222 12.666H5.62666C5.2702 12.666 5.08959 12.2335 5.34149 11.9816L9.21022 8.11289Z" fill="white"/>
<path d="M25.7881 15.2943C25.6408 15.147 25.4364 15.0614 25.2178 15.0614H5.62226C5.26581 15.0614 5.0852 15.4939 5.3371 15.7458L9.20581 19.6145C9.35315 19.7619 9.55752 19.8474 9.77615 19.8474H29.3717C29.7281 19.8474 29.9087 19.4149 29.6568 19.163L25.7881 15.2943Z" fill="white"/>
<defs>
<linearGradient id="paint0_linear_3_567" x1="32.8375" y1="1.85846" x2="4.3883" y2="30.8692" gradientUnits="userSpaceOnUse">
<stop stop-color="#00FFA3"/>
<stop offset="1" stop-color="#DC1FFF"/>
</linearGradient>
</defs>
</svg>
