<svg width="35" height="35" viewBox="0 0 35 35" fill="none" xmlns="http://www.w3.org/2000/svg">
<path d="M17.5 35C27.2006 35 35 27.2006 35 17.5C35 7.79943 27.2006 0 17.5 0C7.79943 0 0 7.79943 0 17.5C0 27.2006 7.79943 35 17.5 35Z" fill="#2775CA"/>
<path d="M22.3099 20.2709C22.3099 17.7186 20.7795 16.8441 17.7139 16.4781C15.5276 16.1882 15.0904 15.6036 15.0904 14.5817C15.0904 13.5599 15.8223 12.904 17.2767 12.904C18.5885 12.904 19.3204 13.3412 19.6816 14.4344C19.7529 14.653 19.9715 14.8004 20.1949 14.8004H21.3641C21.6541 14.8004 21.8775 14.5817 21.8775 14.2871V14.2158C21.5875 12.6093 20.271 11.3736 18.598 11.2262V9.47718C18.598 9.18725 18.3794 8.96387 18.0134 8.89258H16.9202C16.6303 8.89258 16.4069 9.11121 16.3356 9.47718V11.1549C14.1493 11.4449 12.7615 12.904 12.7615 14.7291C12.7615 17.134 14.2206 18.0846 17.2814 18.4458C19.3251 18.8118 19.9811 19.249 19.9811 20.4135C19.9811 21.5779 18.9592 22.3812 17.5761 22.3812C15.6797 22.3812 15.0238 21.5779 14.8052 20.4848C14.7339 20.1949 14.5153 20.0475 14.2919 20.0475H13.0514C12.7615 20.0475 12.5381 20.2662 12.5381 20.5608V20.6321C12.828 22.4572 13.9972 23.769 16.4022 24.1302V25.8793C16.4022 26.1692 16.6208 26.3926 16.9867 26.4639H18.0799C18.3699 26.4639 18.5932 26.2452 18.6645 25.8793V24.1302C20.8508 23.769 22.3099 22.2386 22.3099 20.2709Z" fill="white"/>
<path d="M13.7786 27.9278C8.08947 25.8841 5.17599 19.5438 7.29101 13.9259C8.38416 10.8651 10.7891 8.53141 13.7786 7.43826C14.0686 7.29092 14.2159 7.07229 14.2159 6.70632V5.68446C14.2159 5.39453 14.0686 5.17115 13.7786 5.09985C13.7073 5.09985 13.56 5.09985 13.4887 5.17115C6.56381 7.35746 2.77103 14.7244 4.95734 21.6493C6.26913 25.732 9.40602 28.8689 13.4887 30.1807C13.7786 30.328 14.0733 30.1807 14.1446 29.8907C14.2159 29.8194 14.2159 29.7434 14.2159 29.6008V28.5789C14.2159 28.3651 13.9973 28.0751 13.7786 27.9278ZM21.5068 5.1759C21.2169 5.02856 20.9222 5.1759 20.8509 5.46583C20.7796 5.53712 20.7796 5.61316 20.7796 5.75575V6.77761C20.7796 7.06753 20.9982 7.36221 21.2169 7.50955C26.906 9.55328 29.8195 15.8936 27.7045 21.5114C26.6114 24.5723 24.2064 26.9059 21.2169 27.9991C20.9269 28.1464 20.7796 28.3651 20.7796 28.731V29.7529C20.7796 30.0428 20.9269 30.2662 21.2169 30.3375C21.2881 30.3375 21.4355 30.3375 21.5068 30.2662C28.4317 28.0799 32.2245 20.713 30.0381 13.7881C28.7264 9.62457 25.5182 6.48769 21.5068 5.1759Z" fill="white"/>
</svg>
