<svg width="35" height="35" viewBox="0 0 35 35" fill="none" xmlns="http://www.w3.org/2000/svg">
<path d="M17.5 0C27.1626 0 35 7.83745 35 17.5C35 27.1625 27.1626 35 17.5 35C7.83746 35 0 27.1673 0 17.5C0 7.8327 7.8327 0 17.5 0Z" fill="#53AE94"/>
<path d="M19.6579 15.1711V12.5665H25.6132V8.5979H9.4012V12.5665H15.3565V15.1663C10.5181 15.3897 6.87744 16.345 6.87744 17.4952C6.87744 18.6454 10.5181 19.6008 15.3565 19.8241V28.1654H19.6626V19.8241C24.4915 19.6008 28.1227 18.6454 28.1227 17.4952C28.1227 16.3498 24.4915 15.3945 19.6579 15.1711ZM19.6626 19.1207C19.539 19.1255 18.9164 19.1635 17.5286 19.1635C16.4164 19.1635 15.637 19.1302 15.3613 19.116V19.1207C11.0885 18.9306 7.89456 18.1892 7.89456 17.2956C7.89456 16.4021 11.0837 15.6606 15.3613 15.4705V18.3793C15.6417 18.3983 16.4402 18.4458 17.5476 18.4458C18.8736 18.4458 19.5438 18.3888 19.6674 18.3793V15.4705C23.9354 15.6606 27.1198 16.4068 27.1198 17.2956C27.1103 18.1797 23.9259 18.9258 19.6626 19.1207Z" fill="white"/>
</svg>
