<svg width="35" height="35" viewBox="0 0 35 35" fill="none" xmlns="http://www.w3.org/2000/svg">
<path d="M35 17.5C35 7.83502 27.165 1.09893e-06 17.5 1.5214e-06C7.83501 1.94387e-06 -1.18742e-06 7.83502 -7.64949e-07 17.5C-3.4248e-07 27.165 7.83502 35 17.5 35C27.165 35 35 27.165 35 17.5Z" fill="#23292F"/>
<path d="M26.1538 7.36279H29.6946L22.3278 14.6582C19.6568 17.3008 15.3318 17.3008 12.6656 14.6582L5.28931 7.36279H8.83486L14.4336 12.9045C16.1303 14.5774 18.8536 14.5774 20.5503 12.9045L26.1538 7.36279Z" fill="white"/>
<path d="M8.78774 27.6473H5.24219L12.6565 20.309C15.3275 17.6665 19.6525 17.6665 22.3188 20.309L29.733 27.6473H26.1922L20.546 22.058C18.8493 20.3851 16.126 20.3851 14.4292 22.058L8.78774 27.6473Z" fill="white"/>
</svg>
